<svg viewBox="0 0 1024 1024" xmlns="http://www.w3.org/2000/svg"><path d="M604.282 421.873c15.492-1.173 27.703-14.085 27.703-29.877v-180c0-16.566-13.427-29.993-29.992-29.993H572V61.983c0-16.564-13.426-29.99-29.99-29.99H482c-16.565 0-29.992 13.452-29.992 29.99v120.02H421.99c-16.564 0-29.99 13.427-29.99 29.992v180.003c0 15.795 12.215 28.707 27.71 29.877-102.955 180.25-207.714 231.45-207.714 300.112 0 180.003 145.67 270.005 299.997 270.005S811.99 901.99 811.99 721.987c0-68.643-104.746-119.853-207.706-300.114zm-92.29 480.14c-90.077 0-180.003-90.002-180.003-180.003 0-30.017 150.01-180.003 180.002-270.005 29.992 90.002 180.003 240.013 180.003 270.005 0 90.002-90.077 180.003-180.003 180.003z"/></svg>